<?xml version="1.0" encoding="UTF-8"?>
<svg xmlns="http://www.w3.org/2000/svg" xmlns:xlink="http://www.w3.org/1999/xlink" viewBox="0 0 1080 1080">
  <defs>
    <style>
      .cls-1 {
        fill: url(#linear-gradient);
      }

      .cls-1, .cls-2, .cls-3, .cls-4, .cls-5, .cls-6, .cls-7 {
        stroke-width: 0px;
      }

      .cls-2 {
        fill: #ae9fff;
      }

      .cls-3 {
        fill: #001c26;
      }

      .cls-4 {
        fill: url(#linear-gradient-4);
      }

      .cls-5 {
        fill: url(#linear-gradient-2);
      }

      .cls-6 {
        fill: url(#linear-gradient-3);
      }

      .cls-7 {
        fill: url(#linear-gradient-5);
      }
    </style>
    <linearGradient id="linear-gradient" x1="258.71" y1="688.67" x2="348.19" y2="688.67" gradientUnits="userSpaceOnUse">
      <stop offset="0" stop-color="#fff"/>
      <stop offset="1" stop-color="#000"/>
    </linearGradient>
    <linearGradient id="linear-gradient-2" x1="313.9" y1="182.35" x2="698.01" y2="847.66" gradientUnits="userSpaceOnUse">
      <stop offset="0" stop-color="#156bfd"/>
      <stop offset=".28" stop-color="#b6ffff"/>
      <stop offset=".48" stop-color="#74daff"/>
      <stop offset="1" stop-color="#0558fd"/>
    </linearGradient>
    <linearGradient id="linear-gradient-3" x1="536.69" y1="603.97" x2="690.37" y2="603.97" xlink:href="#linear-gradient"/>
    <linearGradient id="linear-gradient-4" x1="419.47" y1="525.59" x2="507.87" y2="525.59" xlink:href="#linear-gradient"/>
    <linearGradient id="linear-gradient-5" x1="243.51" y1="540" x2="882.79" y2="540" gradientTransform="translate(15.2 2.55)" gradientUnits="userSpaceOnUse">
      <stop offset="0" stop-color="#a8ffff"/>
      <stop offset=".23" stop-color="#74daff"/>
      <stop offset="1" stop-color="#9c58fd"/>
    </linearGradient>
  </defs>
  <g id="Layer_3" data-name="Layer 3">
    <rect class="cls-3" x="2.42" y="2.42" width="1075.16" height="1075.16" rx="537.58" ry="537.58"/>
  </g>
  <g id="Layer_1" data-name="Layer 1">
    <g>
      <g>
        <path class="cls-1" d="M348.19,859.17h-33.53c-30.9,0-55.95-25.05-55.95-55.95v-285.05h0c49.42,0,89.48,40.06,89.48,89.48v251.52Z"/>
        <g>
          <path class="cls-5" d="M569.61,214.17h-310.82c0,49.42,40.06,89.48,89.48,89.48h218.66c63.02,0,124.12,23.71,169.27,67.67,47.99,46.73,73.82,109.98,72.23,177.06-1.38,58.36-24.28,114.51-64.15,157.15-45.71,48.88-108.11,75.92-174.68,75.92h-310.82v28.73c0,33.55,27.2,60.75,60.75,60.75h250.06c181.36,0,328.38-147.02,328.38-328.38h0c0-181.36-147.02-328.38-328.38-328.38Z"/>
          <path class="cls-2" d="M569.61,214.17h-310.82c0,49.42,40.06,89.48,89.48,89.48h218.66c63.02,0,124.12,23.71,169.27,67.67,47.99,46.73,73.82,109.98,72.23,177.06-1.38,58.36-24.28,114.51-64.15,157.15-45.71,48.88-108.11,75.92-174.68,75.92h-310.82v28.73c0,33.55,27.2,60.75,60.75,60.75h250.06c181.36,0,328.38-147.02,328.38-328.38h0c0-181.36-147.02-328.38-328.38-328.38Z"/>
        </g>
        <g>
          <path class="cls-6" d="M651.75,563.11v3.87c0,21.38-17.49,39.58-38.87,39.23-20.78-.35-37.57-17.36-37.57-38.21v-4.88h-38.62v4.89c0,42.44,34.4,76.84,76.84,76.84h0c42.44,0,76.84-34.4,76.84-76.84v-4.88s-38.62,0-38.62,0Z"/>
          <path class="cls-4" d="M425.33,575.94l-1.2-1.47c-7.22-8.87-5.88-21.9,2.98-29.12l24.26-19.75-24.28-19.76c-8.87-7.22-10.2-20.26-2.99-29.12l1.2-1.47c7.22-8.87,20.26-10.2,29.12-2.99l45.8,37.29c10.18,8.28,10.18,23.82,0,32.11l-45.79,37.27c-8.87,7.22-21.9,5.88-29.12-2.99Z"/>
        </g>
      </g>
      <g>
        <path class="cls-7" d="M348.19,859.17h-33.53c-30.9,0-55.95-25.05-55.95-55.95v-285.05h0c49.42,0,89.48,40.06,89.48,89.48v251.52Z"/>
        <g>
          <path class="cls-7" d="M569.61,214.17h-310.82c0,49.42,40.06,89.48,89.48,89.48h218.66c63.02,0,124.12,23.71,169.27,67.67,47.99,46.73,73.82,109.98,72.23,177.06-1.38,58.36-24.28,114.51-64.15,157.15-45.71,48.88-108.11,75.92-174.68,75.92h-310.82v28.73c0,33.55,27.2,60.75,60.75,60.75h250.06c181.36,0,328.38-147.02,328.38-328.38h0c0-181.36-147.02-328.38-328.38-328.38Z"/>
          <path class="cls-7" d="M569.61,214.17h-310.82c0,49.42,40.06,89.48,89.48,89.48h218.66c63.02,0,124.12,23.71,169.27,67.67,47.99,46.73,73.82,109.98,72.23,177.06-1.38,58.36-24.28,114.51-64.15,157.15-45.71,48.88-108.11,75.92-174.68,75.92h-310.82v28.73c0,33.55,27.2,60.75,60.75,60.75h250.06c181.36,0,328.38-147.02,328.38-328.38h0c0-181.36-147.02-328.38-328.38-328.38Z"/>
          <path class="cls-7" d="M569.61,214.17h-310.82c0,49.42,40.06,89.48,89.48,89.48h218.66c63.02,0,124.12,23.71,169.27,67.67,47.99,46.73,73.82,109.98,72.23,177.06-1.38,58.36-24.28,114.51-64.15,157.15-45.71,48.88-108.11,75.92-174.68,75.92h-310.82v28.73c0,33.55,27.2,60.75,60.75,60.75h250.06c181.36,0,328.38-147.02,328.38-328.38h0c0-181.36-147.02-328.38-328.38-328.38Z"/>
        </g>
        <g>
          <path class="cls-7" d="M651.75,563.11v3.87c0,21.38-17.49,39.58-38.87,39.23-20.78-.35-37.57-17.36-37.57-38.21v-4.88h-38.62v4.89c0,42.44,34.4,76.84,76.84,76.84h0c42.44,0,76.84-34.4,76.84-76.84v-4.88s-38.62,0-38.62,0Z"/>
          <path class="cls-7" d="M425.33,575.94l-1.2-1.47c-7.22-8.87-5.88-21.9,2.98-29.12l24.26-19.75-24.28-19.76c-8.87-7.22-10.2-20.26-2.99-29.12l1.2-1.47c7.22-8.87,20.26-10.2,29.12-2.99l45.8,37.29c10.18,8.28,10.18,23.82,0,32.11l-45.79,37.27c-8.87,7.22-21.9,5.88-29.12-2.99Z"/>
        </g>
      </g>
    </g>
  </g>
</svg>