<svg width="997" height="465" viewBox="0 0 997 465" fill="none" xmlns="http://www.w3.org/2000/svg">
<path d="M63.24 455.82H39.54C17.7 455.82 0 438.12 0 416.28V214.84C34.92 214.84 63.23 243.15 63.23 278.07V455.81L63.24 455.82Z" fill="url(#paint0_linear_473_111)"/>
<path d="M219.711 0.00999451H0.0605469C0.0605469 34.93 28.3705 63.24 63.2905 63.24H217.821C262.351 63.24 305.531 79.99 337.441 111.06C371.351 144.08 389.611 188.78 388.491 236.18C387.511 277.42 371.331 317.11 343.151 347.24C310.851 381.78 266.751 400.89 219.711 400.89H0.0605469V421.19C0.0605469 444.9 19.2806 464.12 42.9906 464.12H219.711C347.871 464.12 451.771 360.22 451.771 232.06C451.771 103.9 347.871 0 219.711 0V0.00999451Z" fill="url(#paint1_linear_473_111)"/>
<path d="M219.711 0.00999451H0.0605469C0.0605469 34.93 28.3705 63.24 63.2905 63.24H217.821C262.351 63.24 305.531 79.99 337.441 111.06C371.351 144.08 389.611 188.78 388.491 236.18C387.511 277.42 371.331 317.11 343.151 347.24C310.851 381.78 266.751 400.89 219.711 400.89H0.0605469V421.19C0.0605469 444.9 19.2806 464.12 42.9906 464.12H219.711C347.871 464.12 451.771 360.22 451.771 232.06C451.771 103.9 347.871 0 219.711 0V0.00999451Z" fill="#AE9FFF"/>
<path d="M277.761 246.59V249.33C277.761 264.44 265.401 277.3 250.291 277.05C235.611 276.8 223.741 264.78 223.741 250.04V246.59H196.451V250.04C196.451 280.03 220.761 304.34 250.751 304.34C280.741 304.34 305.051 280.03 305.051 250.04V246.59H277.761Z" fill="url(#paint2_linear_473_111)"/>
<path d="M117.75 255.659L116.91 254.619C111.81 248.349 112.75 239.139 119.02 234.039L136.17 220.079L119.01 206.109C112.74 201.009 111.8 191.799 116.9 185.529L117.74 184.489C122.84 178.219 132.05 177.279 138.32 182.379L170.69 208.729C177.88 214.579 177.88 225.569 170.69 231.419L138.33 257.759C132.06 262.859 122.85 261.919 117.75 255.649V255.659Z" fill="url(#paint3_linear_473_111)"/>
<path d="M63.24 455.82H39.54C17.7 455.82 0 438.12 0 416.28V214.84C34.92 214.84 63.23 243.15 63.23 278.07V455.81L63.24 455.82Z" fill="url(#paint4_linear_473_111)"/>
<path d="M219.711 0.00999451H0.0605469C0.0605469 34.93 28.3705 63.24 63.2905 63.24H217.821C262.351 63.24 305.531 79.99 337.441 111.06C371.351 144.08 389.611 188.78 388.491 236.18C387.511 277.42 371.331 317.11 343.151 347.24C310.851 381.78 266.751 400.89 219.711 400.89H0.0605469V421.19C0.0605469 444.9 19.2806 464.12 42.9906 464.12H219.711C347.871 464.12 451.771 360.22 451.771 232.06C451.771 103.9 347.871 0 219.711 0V0.00999451Z" fill="url(#paint5_linear_473_111)"/>
<path d="M219.711 0.00999451H0.0605469C0.0605469 34.93 28.3705 63.24 63.2905 63.24H217.821C262.351 63.24 305.531 79.99 337.441 111.06C371.351 144.08 389.611 188.78 388.491 236.18C387.511 277.42 371.331 317.11 343.151 347.24C310.851 381.78 266.751 400.89 219.711 400.89H0.0605469V421.19C0.0605469 444.9 19.2806 464.12 42.9906 464.12H219.711C347.871 464.12 451.771 360.22 451.771 232.06C451.771 103.9 347.871 0 219.711 0V0.00999451Z" fill="url(#paint6_linear_473_111)"/>
<path d="M219.711 0.00999451H0.0605469C0.0605469 34.93 28.3705 63.24 63.2905 63.24H217.821C262.351 63.24 305.531 79.99 337.441 111.06C371.351 144.08 389.611 188.78 388.491 236.18C387.511 277.42 371.331 317.11 343.151 347.24C310.851 381.78 266.751 400.89 219.711 400.89H0.0605469V421.19C0.0605469 444.9 19.2806 464.12 42.9906 464.12H219.711C347.871 464.12 451.771 360.22 451.771 232.06C451.771 103.9 347.871 0 219.711 0V0.00999451Z" fill="url(#paint7_linear_473_111)"/>
<path d="M277.761 246.59V249.33C277.761 264.44 265.401 277.3 250.291 277.05C235.611 276.8 223.741 264.78 223.741 250.04V246.59H196.451V250.04C196.451 280.03 220.761 304.34 250.751 304.34C280.741 304.34 305.051 280.03 305.051 250.04V246.59H277.761Z" fill="url(#paint8_linear_473_111)"/>
<path d="M117.75 255.659L116.91 254.619C111.81 248.349 112.75 239.139 119.02 234.039L136.17 220.079L119.01 206.109C112.74 201.009 111.8 191.799 116.9 185.529L117.74 184.489C122.84 178.219 132.05 177.279 138.32 182.379L170.69 208.729C177.88 214.579 177.88 225.569 170.69 231.419L138.33 257.759C132.06 262.859 122.85 261.919 117.75 255.649V255.659Z" fill="url(#paint9_linear_473_111)"/>
<path d="M900.24 348.592C903.92 342.612 909.21 337.782 916.11 334.102C923.01 330.422 930.907 328.582 939.8 328.582C950.38 328.582 959.963 331.266 968.55 336.632C977.137 341.999 983.883 349.666 988.79 359.632C993.85 369.599 996.38 381.176 996.38 394.363C996.38 407.549 993.85 419.203 988.79 429.323C983.883 439.289 977.137 447.032 968.55 452.552C959.963 457.919 950.38 460.603 939.8 460.603C930.753 460.603 922.857 458.839 916.11 455.312C909.363 451.632 904.073 446.803 900.24 440.823V458.763H860.91V288.562H900.24V348.592ZM956.36 394.363C956.36 384.549 953.6 376.882 948.08 371.362C942.713 365.689 936.043 362.853 928.07 362.853C920.25 362.853 913.58 365.689 908.06 371.362C902.693 377.036 900.01 384.779 900.01 394.593C900.01 404.406 902.693 412.149 908.06 417.823C913.58 423.496 920.25 426.332 928.07 426.332C935.89 426.332 942.56 423.496 948.08 417.823C953.6 411.996 956.36 404.176 956.36 394.363Z" fill="white"/>
<path d="M832.659 330.422V458.762H793.329V441.282C789.343 446.955 783.899 451.555 776.999 455.082C770.253 458.455 762.739 460.142 754.459 460.142C744.646 460.142 735.983 457.995 728.469 453.702C720.956 449.255 715.129 442.892 710.989 434.612C706.849 426.332 704.779 416.595 704.779 405.402V330.422H743.879V400.112C743.879 408.699 746.103 415.369 750.549 420.122C754.996 424.875 760.976 427.252 768.489 427.252C776.156 427.252 782.213 424.875 786.659 420.122C791.106 415.369 793.329 408.699 793.329 400.112V330.422H832.659Z" fill="white"/>
<path d="M677.428 288.562V458.763H638.098V288.562H677.428Z" fill="white"/>
<path d="M491.02 394.592C491.02 381.252 493.703 369.599 499.07 359.632C504.59 349.665 512.18 341.999 521.84 336.632C531.653 331.265 542.846 328.582 555.42 328.582C571.52 328.582 584.936 332.799 595.67 341.232C606.556 349.665 613.686 361.549 617.06 376.882H575.2C571.673 367.069 564.85 362.162 554.73 362.162C547.523 362.162 541.773 364.999 537.48 370.672C533.186 376.192 531.04 384.165 531.04 394.592C531.04 405.019 533.186 413.069 537.48 418.742C541.773 424.262 547.523 427.022 554.73 427.022C564.85 427.022 571.673 422.115 575.2 412.302H617.06C613.686 427.329 606.556 439.135 595.67 447.722C584.783 456.309 571.366 460.602 555.42 460.602C542.846 460.602 531.653 457.919 521.84 452.552C512.18 447.185 504.59 439.519 499.07 429.552C493.703 419.585 491.02 407.932 491.02 394.592Z" fill="white"/>
<path d="M849.402 222.962L877.232 131.422H919.092L873.552 259.762H825.022L779.482 131.422H821.572L849.402 222.962Z" fill="white"/>
<path d="M770.923 193.522C770.923 197.202 770.693 201.035 770.233 205.022H681.223C681.836 212.995 684.366 219.129 688.813 223.422C693.413 227.562 699.01 229.632 705.603 229.632C715.416 229.632 722.24 225.492 726.073 217.212H767.933C765.786 225.645 761.876 233.235 756.203 239.982C750.683 246.729 743.706 252.019 735.273 255.852C726.84 259.685 717.41 261.602 706.983 261.602C694.41 261.602 683.216 258.919 673.403 253.552C663.59 248.185 655.923 240.519 650.403 230.552C644.883 220.585 642.123 208.932 642.123 195.592C642.123 182.252 644.806 170.599 650.173 160.632C655.693 150.665 663.36 142.999 673.173 137.632C682.986 132.265 694.256 129.582 706.983 129.582C719.403 129.582 730.443 132.189 740.103 137.402C749.763 142.615 757.276 150.052 762.643 159.712C768.163 169.372 770.923 180.642 770.923 193.522ZM730.673 183.172C730.673 176.425 728.373 171.059 723.773 167.072C719.173 163.085 713.423 161.092 706.523 161.092C699.93 161.092 694.333 163.009 689.733 166.842C685.286 170.675 682.526 176.119 681.453 183.172H730.673Z" fill="white"/>
<path d="M486.02 195.363C486.02 182.176 488.473 170.599 493.38 160.632C498.44 150.666 505.263 142.999 513.85 137.632C522.436 132.266 532.02 129.582 542.6 129.582C551.033 129.582 558.7 131.346 565.6 134.872C572.653 138.399 578.173 143.152 582.16 149.132V89.5625H621.49V259.763H582.16V241.363C578.48 247.496 573.19 252.403 566.29 256.083C559.543 259.763 551.646 261.603 542.6 261.603C532.02 261.603 522.436 258.919 513.85 253.552C505.263 248.032 498.44 240.289 493.38 230.323C488.473 220.203 486.02 208.549 486.02 195.363ZM582.16 195.593C582.16 185.779 579.4 178.036 573.88 172.362C568.513 166.689 561.92 163.853 554.1 163.853C546.28 163.853 539.61 166.689 534.09 172.362C528.723 177.882 526.04 185.549 526.04 195.363C526.04 205.176 528.723 212.996 534.09 218.823C539.61 224.496 546.28 227.332 554.1 227.332C561.92 227.332 568.513 224.496 573.88 218.823C579.4 213.149 582.16 205.406 582.16 195.593Z" fill="white"/>
<defs>
<linearGradient id="paint0_linear_473_111" x1="0" y1="335.33" x2="63.24" y2="335.33" gradientUnits="userSpaceOnUse">
<stop stop-color="white"/>
<stop offset="1"/>
</linearGradient>
<linearGradient id="paint1_linear_473_111" x1="39.0106" y1="-22.48" x2="310.451" y2="447.68" gradientUnits="userSpaceOnUse">
<stop stop-color="#156BFD"/>
<stop offset="0.28" stop-color="#B6FFFF"/>
<stop offset="0.48" stop-color="#74DAFF"/>
<stop offset="1" stop-color="#0558FD"/>
</linearGradient>
<linearGradient id="paint2_linear_473_111" x1="196.451" y1="275.47" x2="305.051" y2="275.47" gradientUnits="userSpaceOnUse">
<stop stop-color="white"/>
<stop offset="1"/>
</linearGradient>
<linearGradient id="paint3_linear_473_111" x1="113.61" y1="220.079" x2="176.08" y2="220.079" gradientUnits="userSpaceOnUse">
<stop stop-color="white"/>
<stop offset="1"/>
</linearGradient>
<linearGradient id="paint4_linear_473_111" x1="0" y1="335.33" x2="451.77" y2="335.33" gradientUnits="userSpaceOnUse">
<stop stop-color="#A8FFFF"/>
<stop offset="0.23" stop-color="#74DAFF"/>
<stop offset="1" stop-color="#9C58FD"/>
</linearGradient>
<linearGradient id="paint5_linear_473_111" x1="0.0605469" y1="232.07" x2="451.771" y2="232.07" gradientUnits="userSpaceOnUse">
<stop stop-color="#A8FFFF"/>
<stop offset="0.23" stop-color="#74DAFF"/>
<stop offset="1" stop-color="#9C58FD"/>
</linearGradient>
<linearGradient id="paint6_linear_473_111" x1="0.0605469" y1="232.07" x2="451.771" y2="232.07" gradientUnits="userSpaceOnUse">
<stop stop-color="#A8FFFF"/>
<stop offset="0.23" stop-color="#74DAFF"/>
<stop offset="1" stop-color="#9C58FD"/>
</linearGradient>
<linearGradient id="paint7_linear_473_111" x1="0.0605469" y1="232.07" x2="451.771" y2="232.07" gradientUnits="userSpaceOnUse">
<stop stop-color="#A8FFFF"/>
<stop offset="0.23" stop-color="#74DAFF"/>
<stop offset="1" stop-color="#9C58FD"/>
</linearGradient>
<linearGradient id="paint8_linear_473_111" x1="0.00115769" y1="275.47" x2="451.771" y2="275.47" gradientUnits="userSpaceOnUse">
<stop stop-color="#A8FFFF"/>
<stop offset="0.23" stop-color="#74DAFF"/>
<stop offset="1" stop-color="#9C58FD"/>
</linearGradient>
<linearGradient id="paint9_linear_473_111" x1="0.00047822" y1="220.079" x2="451.77" y2="220.079" gradientUnits="userSpaceOnUse">
<stop stop-color="#A8FFFF"/>
<stop offset="0.23" stop-color="#74DAFF"/>
<stop offset="1" stop-color="#9C58FD"/>
</linearGradient>
</defs>
</svg>
