<svg width="1801" height="1788" viewBox="0 0 1801 1788" fill="none" xmlns="http://www.w3.org/2000/svg">
<path d="M924.037 290.457C967.567 218.125 1072.43 218.125 1115.96 290.457L1252.61 517.513C1268.25 543.499 1293.75 562.031 1323.3 568.874L1581.47 628.667C1663.71 647.714 1696.12 747.447 1640.78 811.198L1467.06 1011.32C1447.18 1034.22 1437.43 1064.21 1440.06 1094.42L1462.97 1358.43C1470.27 1442.54 1385.43 1504.18 1307.7 1471.24L1063.69 1367.87C1035.76 1356.04 1004.24 1356.04 976.31 1367.87L732.301 1471.24C654.569 1504.18 569.732 1442.54 577.031 1358.43L599.943 1094.42C602.566 1064.21 592.822 1034.22 572.941 1011.32L399.223 811.198C343.883 747.447 376.288 647.714 458.531 628.667L716.701 568.874C746.247 562.031 771.754 543.499 787.393 517.514L924.037 290.457Z" fill="white"/>
<path d="M1053.42 337.156L1211.09 599.163C1221.15 615.868 1237.55 627.782 1256.54 632.181L1554.45 701.177C1583.82 707.98 1595.39 743.598 1575.63 766.367L1375.17 997.292C1362.39 1012.02 1356.13 1031.29 1357.81 1050.72L1384.25 1355.36C1386.86 1385.4 1356.56 1407.42 1328.8 1395.65L1047.23 1276.37C1029.28 1268.76 1009.01 1268.76 991.057 1276.37L709.489 1395.65C681.728 1407.42 651.429 1385.4 654.035 1355.36L680.475 1050.72C682.161 1031.29 675.897 1012.02 663.117 997.292L462.659 766.367C442.894 743.598 454.467 707.98 483.84 701.177L781.748 632.181C800.742 627.782 817.14 615.868 827.193 599.163L984.871 337.156C1000.42 311.323 1037.87 311.323 1053.42 337.156Z" fill="#FFC700" stroke="black" stroke-width="32"/>
<path d="M992.208 1195.08C981.968 1195.08 971.045 1192.86 959.44 1188.42C948.176 1184.33 938.107 1176.99 929.232 1166.41C920.357 1155.83 914.213 1140.81 910.8 1121.35C909.093 1110.43 906.363 1102.58 902.608 1097.8C898.853 1093.02 892.539 1088.93 883.664 1085.51C865.915 1079.71 849.872 1068.1 835.536 1050.7C821.541 1032.95 810.448 1011.1 802.256 985.16C794.405 959.219 790.48 930.888 790.48 900.168C790.48 873.544 793.381 848.797 799.184 825.928C805.328 803.059 813.691 783.091 824.272 766.024C835.195 748.616 847.824 735.133 862.16 725.576C876.496 716.019 891.856 711.24 908.24 711.24C924.624 711.24 939.813 716.019 953.808 725.576C968.144 735.133 980.773 748.616 991.696 766.024C1002.62 783.091 1010.98 803.059 1016.78 825.928C1022.93 848.797 1026 873.544 1026 900.168C1026 931.571 1021.73 960.584 1013.2 987.208C1005.01 1013.49 993.573 1035.34 978.896 1052.74C964.56 1070.15 948.176 1081.42 929.744 1086.54C927.696 1086.88 926.672 1087.73 926.672 1089.1C926.672 1090.8 927.525 1092.34 929.232 1093.7C933.669 1096.78 937.424 1100.53 940.496 1104.97C943.568 1109.75 946.128 1115.72 948.176 1122.89C954.32 1142.69 962.171 1157.02 971.728 1165.9C981.627 1174.77 992.379 1179.21 1003.98 1179.21C1014.22 1179.21 1024.63 1175.97 1035.22 1169.48C1037.95 1167.77 1040.51 1167.26 1042.9 1167.94C1045.29 1168.63 1046.48 1170.33 1046.48 1173.06C1046.48 1175.45 1045.11 1177.84 1042.38 1180.23C1036.92 1184.33 1030.1 1187.74 1021.9 1190.47C1014.05 1193.54 1004.15 1195.08 992.208 1195.08ZM908.24 1075.78C932.475 1075.78 951.419 1061.28 965.072 1032.26C978.725 1003.25 985.552 959.219 985.552 900.168C985.552 841.117 978.725 797.256 965.072 768.584C951.419 739.571 932.475 725.064 908.24 725.064C884.347 725.064 865.403 739.571 851.408 768.584C837.755 797.256 830.928 841.117 830.928 900.168C830.928 959.219 837.755 1003.25 851.408 1032.26C865.403 1061.28 884.347 1075.78 908.24 1075.78ZM1032.46 1085C1027.34 1085 1024.78 1083.29 1024.78 1079.88C1024.78 1076.47 1027.17 1074.25 1031.95 1073.22L1039.63 1071.69C1046.46 1070.32 1051.58 1067.08 1054.99 1061.96C1058.41 1056.5 1061.31 1048.99 1063.7 1039.43L1143.06 719.432C1143.74 716.019 1144.76 713.8 1146.13 712.776C1147.83 711.752 1149.37 711.24 1150.74 711.24C1152.44 711.24 1153.98 711.752 1155.34 712.776C1157.05 713.8 1158.25 716.019 1158.93 719.432L1239.82 1044.04C1242.21 1053.6 1244.94 1060.25 1248.02 1064.01C1251.09 1067.76 1255.87 1070.32 1262.35 1071.69L1270.03 1073.22C1274.81 1074.25 1277.2 1076.47 1277.2 1079.88C1277.2 1083.29 1274.64 1085 1269.52 1085H1181.97C1177.19 1085 1174.8 1083.12 1174.8 1079.37C1174.8 1075.61 1177.7 1073.57 1183.5 1073.22L1193.23 1072.2C1199.03 1071.52 1202.62 1069.64 1203.98 1066.57C1205.69 1063.5 1205.69 1058.21 1203.98 1050.7L1184.53 971.336C1182.48 962.461 1176.85 958.024 1167.63 958.024H1113.87C1105 958.024 1099.37 962.461 1096.98 971.336L1079.57 1039.94C1074.45 1059.4 1079.57 1070.15 1094.93 1072.2L1102.61 1073.22C1108.41 1074.25 1111.31 1076.3 1111.31 1079.37C1111.31 1083.12 1108.92 1085 1104.14 1085H1032.46ZM1112.34 942.664H1168.66C1174.12 942.664 1176.34 939.763 1175.31 933.96L1142.54 796.744H1139.98L1105.68 933.96C1104.66 939.763 1106.87 942.664 1112.34 942.664Z" fill="white"/>
<path d="M1798 1499.5C1798 1658.83 1668.83 1788 1509.5 1788C1350.17 1788 1221 1658.83 1221 1499.5C1221 1340.17 1350.17 1211 1509.5 1211C1668.83 1211 1798 1340.17 1798 1499.5Z" fill="white"/>
<circle cx="1509.5" cy="1499.5" r="219.5" fill="#00FF66" stroke="black" stroke-width="32"/>
<rect x="1341" y="1500.45" width="67.107" height="181.154" transform="rotate(-45 1341 1500.45)" fill="white"/>
<rect x="1631.42" y="1372" width="67.11" height="296.274" transform="rotate(45 1631.42 1372)" fill="white"/>
<path d="M274.018 678.52L281.681 675.44L281.853 667.182C283.159 604.232 273.319 559.34 256.877 529.026C240.269 498.405 216.749 482.535 192.128 479.28C148.416 473.501 105.128 508.964 106.42 554.327C63.5306 569.159 45.6691 622.193 66.5318 661.037C78.2828 682.917 101.445 699.306 135.96 704.013C170.129 708.674 215.599 702.004 274.018 678.52Z" fill="#FF5656" stroke="white" stroke-width="25"/>
<path d="M121.346 571.611L129.455 570.245L127.866 562.176C120.894 526.783 154.181 494.942 189.441 499.603C206.496 501.858 224.829 512.937 238.857 538.8C252.577 564.096 262.054 603.426 261.44 661.453C207.382 682.547 167.243 687.59 138.73 683.701C109.579 679.725 92.7322 666.494 84.5919 651.338C67.7618 620.001 85.7749 577.605 121.346 571.611Z" fill="#FF5656" stroke="black" stroke-width="16"/>
<path d="M417.006 99.4239L417.173 99.8247L417.181 99.8417C423.823 115.862 428.194 130.347 429.311 138.903C429.894 143.457 429.672 154.398 426.286 166.824C422.918 179.102 417.057 190.59 408.278 198.44C396.841 208.653 387.227 228.545 397.039 248.21L427.403 309.066C437.119 328.54 459.425 334.16 476.712 327.729L476.719 327.726L476.727 327.724C491.207 322.315 498.899 322.966 507.958 323.732L508.171 323.75L508.957 323.825C515.98 324.612 523.069 324.608 530.091 323.813L530.197 323.801L530.303 323.788C538.955 322.659 547.978 319.878 558.224 314.766L611.473 288.198C629.905 279.001 638.846 262.59 639.72 246.841C640.146 239.257 638.72 231.522 635.35 224.768C634.593 223.251 633.702 221.708 632.659 220.19C633.188 215.086 633.122 209.932 632.46 204.83L632.451 204.761L632.442 204.693C631.605 198.766 629.378 190.533 623.675 183.647C623.523 182.129 623.306 180.684 623.057 179.333L623.053 179.312L623.05 179.291C621.927 173.293 619.8 167.4 617.169 162.128C614.539 156.856 611.11 151.613 606.993 147.109L606.977 147.092L606.961 147.075C606.575 146.655 606.175 146.234 605.763 145.814C605.662 132.779 599.991 121.76 592.064 113.996L592.055 113.988L592.047 113.98C582.151 104.324 567.325 98.3575 553.647 100.292L553.635 100.293C539.815 102.261 526.815 107.893 516.598 113.484C506.967 85.6052 492.086 66.1151 483.341 56.2674L483.335 56.2608L483.329 56.2542C473.941 45.7119 460.28 42.7828 448.592 45.3588C448.587 45.3599 448.582 45.3609 448.577 45.362L444.132 46.3332L444.11 46.3382L444.087 46.3432C419.513 51.8078 408.174 78.1425 417.006 99.4239ZM446.8 58.5441L446.8 58.5441L446.8 58.5441Z" fill="#49FF71" stroke="white" stroke-width="25"/>
<path d="M519.736 135.374C517.691 136.642 515.675 137.955 513.69 139.313L504.062 145.902L501.386 134.546C493.784 102.286 477.029 80.0344 468.015 69.8827C464.246 65.6545 458.509 64.1629 452.997 65.3798L452.989 65.3817L452.98 65.3836L448.537 66.3544C448.533 66.3553 448.528 66.3563 448.524 66.3572C437.507 68.8156 431.643 80.9139 435.868 91.3872L435.945 91.5734C442.922 108.336 448.168 124.962 449.641 136.266L449.642 136.274L449.643 136.281C450.62 143.884 450.057 157.573 446.061 172.227L446.058 172.238C442.046 186.87 434.618 202.389 421.942 213.722L421.937 213.727C414.77 220.123 411.082 230.438 415.382 239.058L445.746 299.913C450.059 308.556 460.49 311.889 469.559 308.518C488.271 301.529 499.451 302.44 509.969 303.329L510.015 303.332L510.061 303.337L511.019 303.429L511.086 303.435L511.154 303.443C516.657 304.066 522.213 304.069 527.716 303.451C533.749 302.656 540.565 300.667 549.072 296.422L602.321 269.854C613.901 264.076 618.77 254.401 619.251 245.703L619.252 245.694C619.497 241.346 618.646 237.206 617.007 233.92C616.176 232.256 615.135 230.774 613.929 229.613L610.78 226.58L611.633 222.291C612.6 217.425 612.77 212.434 612.136 207.514C611.433 202.574 609.578 197.858 606.265 195.089L603.29 192.602L603.398 188.727C603.449 186.913 603.256 185.01 602.897 183.048C602.174 179.195 600.738 175.113 598.826 171.281C596.913 167.448 594.516 163.845 591.871 160.951C590.678 159.657 589.399 158.457 588.042 157.416L584.334 154.57L584.992 149.943C586.249 141.097 582.976 133.795 577.727 128.649C571.551 122.625 562.841 119.696 556.518 120.59L519.736 135.374ZM519.736 135.374C529.748 129.186 543.117 122.499 556.517 120.59L519.736 135.374Z" fill="#49FF71" stroke="black" stroke-width="16"/>
<path d="M1046.9 143.518L1034.06 64.1111L1033.31 64.2327L1004.49 87.8734L999.824 58.9983L1029.28 35.0227L1066.95 28.9318L1084.5 137.439L1046.9 143.518Z" fill="#8E49FF"/>
<path d="M886.761 135.226L882.129 106.576L989.433 89.2278L994.065 117.877L886.761 135.226ZM930.735 157.129L916.948 71.8572L945.523 67.2374L959.309 152.509L930.735 157.129Z" fill="#8E49FF"/>
<path fill-rule="evenodd" clip-rule="evenodd" d="M1026.21 172.187L1016.25 110.566L986.749 134.766L984.274 119.46L994.065 117.877L989.433 89.2277L979.642 90.8107L972.839 48.7278L1018.69 11.4107L1087.64 0.262135L1113.17 158.128L1026.21 172.187ZM1033.31 64.2327L1034.06 64.1111L1046.9 143.517L1084.5 137.439L1066.95 28.9318L1029.28 35.0226L999.824 58.9983L1004.49 87.8733L1033.31 64.2327Z" fill="white"/>
<path fill-rule="evenodd" clip-rule="evenodd" d="M866.072 163.895L853.46 85.8869L892.862 79.5164L888.279 51.1677L966.212 38.5677L970.796 66.9164L1000.33 62.141L1004.49 87.8733L1013.36 80.5964L1022.73 138.567L983.408 144.925L987.979 173.198L910.046 185.798L905.474 157.525L866.072 163.895ZM926.164 128.855L930.735 157.129L959.309 152.509L954.738 124.235L994.065 117.877L989.433 89.2277L950.106 95.586L945.523 67.2373L916.949 71.8571L921.532 100.206L882.129 106.576L886.761 135.226L926.164 128.855Z" fill="white"/>
</svg>
